<!DOCTYPE svg PUBLIC "-//W3C//DTD SVG 20010904//EN" "http://www.w3.org/TR/2001/REC-SVG-20010904/DTD/svg10.dtd">
<svg version="1.0" xmlns="http://www.w3.org/2000/svg" width="1086px" height="1086px" viewBox="0 0 10860 10860" preserveAspectRatio="xMidYMid meet">
<g id="layer101" fill="#010000" stroke="none">
 <path d="M5145 10854 c-294 -16 -600 -61 -757 -110 -164 -52 -217 -93 -249 -192 -18 -57 -22 -105 -29 -317 -9 -255 -34 -3909 -35 -4895 l0 -545 28 -100 c42 -149 128 -313 293 -560 147 -220 200 -317 236 -430 15 -48 39 -323 123 -1405 57 -740 106 -1364 108 -1386 4 -39 2 -43 -28 -57 -18 -9 -46 -33 -62 -53 -26 -35 -28 -44 -28 -123 0 -77 5 -96 38 -176 21 -49 48 -116 60 -147 l22 -57 -37 -38 c-49 -50 -57 -89 -29 -146 40 -83 43 -84 256 -102 222 -18 561 -20 759 -4 121 10 147 15 185 37 75 44 86 107 36 199 l-23 42 46 133 c43 122 47 141 47 228 0 109 -19 161 -73 195 -39 25 -39 7 -7 440 82 1117 136 1859 150 2060 9 127 22 262 31 300 21 101 89 230 251 475 166 253 238 386 287 530 73 218 70 47 52 2405 -25 3366 -25 3310 -42 3395 -26 123 -87 217 -173 264 -91 49 -303 93 -589 121 -150 16 -690 27 -847 19z"/>
 </g>
<g id="layer102" fill="#601c0e" stroke="none">
 <path d="M5798 8501 c-24 -24 -23 -83 0 -104 10 -10 33 -17 50 -17 25 0 36 7 51 31 21 34 16 65 -13 95 -20 19 -67 17 -88 -5z"/>
 <path d="M5956 8401 c-26 -29 -24 -91 4 -113 52 -42 130 -9 130 55 0 66 -91 105 -134 58z"/>
 <path d="M5199 8329 c-34 -37 -34 -35 -9 -76 17 -28 25 -33 59 -33 48 0 71 21 71 63 0 38 -7 50 -37 66 -34 18 -53 13 -84 -20z"/>
 <path d="M5404 8322 c-24 -19 -44 -53 -44 -76 0 -8 14 -28 31 -45 41 -41 79 -41 113 0 35 41 33 74 -5 110 -35 33 -64 36 -95 11z"/>
 <path d="M6085 8268 c-75 -41 -87 -97 -30 -147 41 -36 44 -36 90 -17 69 29 74 119 8 158 -34 20 -42 21 -68 6z"/>
 <path d="M5541 8211 c-16 -12 -25 -31 -28 -62 -4 -38 -1 -47 22 -69 63 -59 163 -12 152 72 -6 48 -40 77 -87 77 -19 1 -46 -8 -59 -18z"/>
 <path d="M5670 8055 c-36 -19 -52 -54 -48 -105 3 -38 8 -48 38 -68 25 -17 43 -22 65 -18 102 20 126 135 40 188 -35 21 -61 22 -95 3z"/>
 <path d="M6094 8055 c-28 -19 -48 -69 -40 -101 18 -71 118 -100 167 -48 35 37 35 117 -1 144 -30 23 -97 26 -126 5z"/>
 <path d="M4893 8008 c-28 -36 -34 -59 -23 -92 18 -57 84 -73 125 -31 31 30 34 93 7 118 -22 20 -95 23 -109 5z"/>
 <path d="M5093 7984 c-34 -17 -53 -51 -53 -92 1 -34 16 -54 58 -76 28 -15 35 -15 60 -2 35 18 47 33 56 70 6 24 -8 86 -19 86 -1 0 -18 6 -37 14 -30 13 -38 13 -65 0z"/>
 <path d="M4707 7944 c-12 -12 -8 -79 5 -92 17 -17 73 -15 87 2 7 8 11 32 9 53 -3 37 -4 38 -48 41 -25 2 -49 0 -53 -4z"/>
 <path d="M5263 7874 c-37 -18 -67 -75 -59 -109 3 -13 17 -36 29 -51 19 -22 33 -27 71 -28 41 -1 51 3 72 27 24 28 32 84 18 122 -6 15 -73 55 -91 55 -4 0 -22 -8 -40 -16z"/>
 <path d="M5775 7843 c-11 -3 -32 -17 -47 -31 -24 -22 -28 -34 -28 -76 1 -67 44 -116 102 -116 52 0 118 66 118 117 0 24 -35 80 -57 91 -26 13 -65 20 -88 15z"/>
 <path d="M6074 7806 c-46 -46 -48 -104 -5 -146 63 -63 136 -49 181 35 20 37 -2 100 -43 125 -50 31 -93 26 -133 -14z"/>
 <path d="M5400 7681 c-36 -36 -46 -73 -30 -112 20 -46 56 -69 109 -69 39 0 52 5 76 30 23 24 28 39 28 75 0 36 -5 51 -28 75 -24 25 -36 30 -78 30 -40 0 -53 -5 -77 -29z"/>
 <path d="M4742 7580 c-36 -30 -46 -72 -28 -109 20 -37 44 -51 90 -51 37 0 62 19 77 57 15 40 10 60 -22 92 -36 36 -82 41 -117 11z"/>
 <path d="M4578 7554 c-82 -44 -54 -160 37 -152 81 7 101 108 30 149 -37 22 -34 21 -67 3z"/>
 <path d="M4948 7547 c-82 -67 -46 -179 57 -179 66 0 95 29 95 91 -1 49 -10 67 -50 94 -33 23 -70 21 -102 -6z"/>
 <path d="M6024 7536 c-29 -29 -34 -41 -34 -79 0 -111 133 -162 208 -80 35 38 31 112 -9 158 -28 31 -36 35 -81 35 -44 0 -54 -4 -84 -34z"/>
 <path d="M5573 7478 c-37 -27 -53 -57 -53 -99 0 -106 133 -154 210 -77 42 41 42 109 2 157 -23 28 -36 34 -77 38 -41 4 -56 0 -82 -19z"/>
 <path d="M5193 7469 c-99 -29 -95 -180 5 -209 73 -22 142 31 142 108 0 31 -7 46 -32 71 -17 17 -37 31 -44 31 -7 0 -18 2 -26 4 -7 2 -27 0 -45 -5z"/>
 <path d="M4396 7409 c-14 -17 -26 -37 -26 -44 0 -24 51 -75 75 -75 65 0 99 84 52 128 -33 31 -70 28 -101 -9z"/>
 <path d="M6005 7282 c-53 -18 -95 -75 -95 -128 0 -61 69 -124 138 -124 16 0 47 13 70 30 34 24 42 37 47 74 12 77 -35 143 -108 151 -18 2 -41 1 -52 -3z"/>
 <path d="M4774 7115 c-34 -33 -36 -37 -30 -77 10 -64 38 -88 102 -88 47 0 55 3 73 29 39 54 22 130 -36 160 -38 19 -70 13 -109 -24z"/>
 <path d="M5011 7115 c-45 -51 -44 -104 3 -151 38 -38 72 -43 129 -19 63 26 76 112 26 170 -27 31 -37 35 -79 35 -42 0 -52 -4 -79 -35z"/>
 <path d="M5286 7087 c-33 -31 -36 -38 -36 -88 0 -45 4 -59 23 -76 49 -45 96 -54 147 -28 43 22 60 53 60 108 0 42 -5 54 -34 83 -29 29 -41 34 -79 34 -36 0 -51 -6 -81 -33z"/>
 <path d="M4594 7084 c-31 -15 -54 -50 -54 -82 0 -10 12 -33 28 -51 22 -27 34 -33 67 -33 31 0 45 6 67 31 15 17 28 39 28 49 0 28 -38 82 -66 92 -32 13 -33 13 -70 -6z"/>
 <path d="M5600 7053 c-47 -29 -65 -63 -65 -126 1 -76 29 -107 106 -115 65 -6 109 15 133 64 23 50 20 92 -10 131 -45 60 -111 78 -164 46z"/>
 <path d="M5904 6995 c-41 -18 -71 -57 -85 -107 -33 -123 111 -224 224 -158 62 36 87 138 50 202 -36 60 -128 91 -189 63z"/>
 <path d="M4415 6958 c-32 -38 -29 -81 11 -115 32 -29 62 -29 96 0 40 33 41 85 3 122 -35 36 -76 33 -110 -7z"/>
 <path d="M6172 6852 c-39 -37 -47 -64 -27 -101 15 -30 60 -61 88 -61 8 0 26 11 41 25 34 31 36 31 36 -3 0 -29 29 -63 63 -75 26 -9 76 19 87 49 16 40 12 54 -21 85 -34 32 -70 37 -89 14 -18 -21 -30 -19 -30 6 0 28 -65 89 -95 89 -12 0 -36 -12 -53 -28z"/>
 <path d="M4319 6787 c-11 -8 -16 -26 -15 -52 1 -35 5 -42 37 -59 l36 -20 31 23 c34 24 42 63 22 102 -12 22 -84 26 -111 6z"/>
 <path d="M5013 6782 c-69 -53 -35 -176 54 -199 38 -9 95 26 116 72 17 34 17 44 6 77 -6 21 -23 45 -35 53 -32 21 -113 19 -141 -3z"/>
 <path d="M4825 6703 c-28 -7 -51 -30 -65 -64 -30 -72 61 -159 130 -124 40 21 60 53 60 97 0 63 -60 107 -125 91z"/>
 <path d="M5832 6673 c-31 -6 -82 -78 -82 -115 0 -69 67 -138 135 -138 70 0 132 79 121 155 -12 76 -84 118 -174 98z"/>
 <path d="M6494 6672 c-57 -9 -72 -88 -23 -124 20 -15 30 -17 53 -8 39 14 56 34 56 65 0 43 -41 75 -86 67z"/>
 <path d="M5358 6621 c-30 -26 -33 -35 -33 -85 0 -47 4 -59 29 -85 26 -27 37 -31 82 -31 45 0 57 4 83 31 28 27 31 37 31 89 0 53 -3 61 -31 84 -45 38 -117 37 -161 -3z"/>
 <path d="M4645 6578 c-34 -19 -55 -52 -55 -90 0 -70 87 -112 143 -68 52 41 42 126 -17 154 -40 19 -44 19 -71 4z"/>
 <path d="M5158 6464 c-37 -19 -48 -43 -48 -99 0 -40 5 -52 31 -76 24 -23 40 -29 74 -29 34 0 50 6 74 29 26 24 31 36 31 76 0 57 -12 80 -50 100 -36 19 -77 19 -112 -1z"/>
 <path d="M4545 6418 c-68 -36 -82 -85 -40 -131 50 -53 145 -20 145 51 0 47 -69 99 -105 80z"/>
 <path d="M5734 6346 c-37 -32 -39 -37 -38 -89 0 -48 4 -60 27 -81 51 -47 119 -47 169 1 24 23 28 34 28 84 0 54 -2 59 -37 88 -52 43 -97 42 -149 -3z"/>
 <path d="M4965 6263 c-46 -47 -46 -80 -1 -127 42 -45 94 -49 140 -13 24 20 29 31 30 70 1 38 -4 51 -28 76 -44 45 -93 43 -141 -6z"/>
 <path d="M5418 6227 c-53 -24 -68 -46 -68 -103 0 -45 4 -57 27 -78 74 -68 183 -22 183 78 0 51 -20 82 -67 101 -41 17 -39 17 -75 2z"/>
 <path d="M4492 6200 c-45 -43 -32 -110 25 -125 51 -13 106 52 81 98 -26 49 -70 60 -106 27z"/>
 <path d="M4873 6104 c-23 -10 -51 -68 -46 -96 8 -42 48 -73 94 -72 44 2 64 14 85 56 16 31 9 53 -29 96 -20 21 -71 29 -104 16z"/>
 <path d="M5682 6059 c-61 -60 -36 -155 48 -180 33 -10 43 -9 72 8 42 24 73 80 65 115 -4 15 -21 40 -38 57 -43 44 -102 44 -147 0z"/>
 <path d="M5304 5989 c-48 -24 -68 -99 -38 -145 67 -101 226 -20 179 92 -22 52 -89 78 -141 53z"/>
 <path d="M4822 5897 c-29 -31 -30 -96 -2 -120 23 -20 78 -22 101 -4 19 15 39 50 39 71 0 8 -12 28 -26 45 -33 39 -80 42 -112 8z"/>
 <path d="M5688 5825 c-37 -21 -61 -69 -53 -105 7 -30 50 -74 84 -85 27 -8 82 25 105 64 15 27 16 36 6 60 -26 65 -91 94 -142 66z"/>
 <path d="M5251 5754 c-42 -35 -43 -88 -3 -127 58 -56 152 -20 152 58 0 49 -13 71 -51 84 -47 16 -64 14 -98 -15z"/>
 <path d="M4877 5694 c-4 -4 -7 -27 -7 -51 l0 -43 51 0 50 0 -3 48 -3 47 -40 3 c-23 2 -44 0 -48 -4z"/>
 <path d="M5724 5613 c-34 -7 -55 -37 -57 -81 -2 -54 31 -92 81 -92 33 0 34 -1 20 -17 -39 -45 -29 -102 23 -128 29 -16 34 -16 65 1 33 18 44 38 44 82 0 27 -45 72 -71 72 -23 0 -24 13 -4 30 23 19 19 75 -7 104 -24 26 -58 37 -94 29z"/>
 <path d="M5288 5563 c-33 -38 -37 -56 -21 -88 32 -61 83 -73 127 -29 53 54 20 134 -56 134 -21 0 -41 -7 -50 -17z"/>
 <path d="M5409 5391 c-34 -34 -36 -56 -10 -90 38 -49 131 -21 131 39 0 26 -48 80 -72 80 -11 0 -33 -13 -49 -29z"/>
 <path d="M5916 5319 c-19 -15 -26 -30 -26 -53 0 -64 68 -90 116 -46 38 36 31 81 -17 105 -36 19 -41 19 -73 -6z"/>
 </g>
<g id="layer103" fill="#bd0c25" stroke="none">
 <path d="M5813 8497 c-44 -43 -21 -107 37 -107 52 0 68 70 25 108 -31 27 -34 27 -62 -1z"/>
 <path d="M5967 8392 c-39 -42 -9 -112 46 -112 55 0 84 61 51 108 -19 28 -74 30 -97 4z"/>
 <path d="M5219 8328 c-24 -19 -28 -40 -12 -70 14 -29 52 -38 83 -19 13 9 20 74 9 86 -14 13 -65 15 -80 3z"/>
 <path d="M5407 8308 c-28 -22 -32 -73 -8 -97 43 -43 114 -14 114 46 0 49 -66 80 -106 51z"/>
 <path d="M6075 8251 c-29 -12 -49 -54 -41 -86 4 -14 21 -34 38 -45 27 -16 35 -17 62 -6 52 21 69 76 38 124 -11 16 -71 24 -97 13z"/>
 <path d="M5547 8195 c-53 -50 -20 -125 55 -125 40 0 63 21 71 64 4 23 -1 36 -23 58 -35 35 -67 36 -103 3z"/>
 <path d="M6115 8054 c-38 -20 -45 -31 -45 -77 0 -72 74 -111 135 -71 49 32 41 120 -14 149 -37 19 -39 19 -76 -1z"/>
 <path d="M5680 8043 c-48 -18 -65 -93 -31 -134 28 -35 104 -34 131 1 24 31 25 78 2 108 -18 23 -73 37 -102 25z"/>
 <path d="M4894 7985 c-11 -17 -14 -35 -10 -60 6 -29 12 -35 41 -41 50 -9 85 16 85 60 0 41 -26 66 -68 66 -23 0 -36 -7 -48 -25z"/>
 <path d="M5093 7968 c-12 -6 -27 -24 -34 -40 -16 -39 9 -97 43 -100 68 -4 98 18 98 71 0 41 -6 51 -37 69 -27 14 -40 14 -70 0z"/>
 <path d="M4733 7933 c-7 -2 -13 -20 -13 -39 0 -32 2 -34 35 -34 33 0 35 2 35 34 0 39 -21 54 -57 39z"/>
 <path d="M5269 7859 c-50 -18 -62 -97 -22 -141 11 -12 31 -18 59 -18 34 0 47 5 63 26 37 48 22 115 -30 133 -37 13 -35 13 -70 0z"/>
 <path d="M5737 7802 c-34 -35 -36 -95 -6 -132 29 -35 108 -36 141 -2 35 35 32 106 -5 138 -40 34 -95 33 -130 -4z"/>
 <path d="M6085 7799 c-28 -25 -35 -38 -35 -68 1 -62 55 -108 115 -97 81 16 105 123 39 175 -38 30 -77 27 -119 -10z"/>
 <path d="M5413 7676 c-23 -20 -28 -32 -28 -70 0 -56 25 -85 82 -93 32 -4 44 -1 71 22 27 22 32 34 32 70 0 36 -5 48 -31 69 -40 34 -88 34 -126 2z"/>
 <path d="M4758 7572 c-52 -31 -46 -112 8 -132 83 -32 141 67 73 124 -36 30 -45 31 -81 8z"/>
 <path d="M4973 7544 c-58 -24 -71 -91 -28 -138 51 -55 145 -17 145 58 -1 61 -62 103 -117 80z"/>
 <path d="M6044 7542 c-53 -42 -59 -111 -15 -160 40 -43 104 -45 150 -6 27 22 31 32 31 76 0 43 -4 54 -31 79 -37 34 -100 40 -135 11z"/>
 <path d="M4577 7533 c-37 -19 -45 -58 -20 -91 24 -33 56 -39 89 -18 18 13 24 25 24 55 0 56 -43 81 -93 54z"/>
 <path d="M5620 7482 c-14 -2 -36 -11 -50 -22 -22 -16 -25 -27 -25 -80 0 -53 3 -64 25 -80 32 -25 107 -26 136 -2 49 39 56 91 21 143 -23 34 -57 47 -107 41z"/>
 <path d="M5165 7436 c-35 -35 -42 -72 -19 -114 34 -64 126 -69 164 -7 28 45 25 68 -11 110 -26 29 -38 35 -70 35 -29 0 -47 -7 -64 -24z"/>
 <path d="M4407 7402 c-22 -24 -21 -55 1 -75 38 -35 102 -9 102 40 0 47 -71 71 -103 35z"/>
 <path d="M6013 7273 c-49 -6 -83 -52 -83 -112 0 -112 123 -158 201 -75 19 20 24 37 24 75 0 41 -5 53 -30 78 -32 31 -61 39 -112 34z"/>
 <path d="M5024 7106 c-37 -37 -42 -62 -19 -106 19 -36 43 -50 90 -50 82 0 116 100 56 161 -41 41 -83 39 -127 -5z"/>
 <path d="M4785 7105 c-36 -35 -35 -96 1 -124 59 -47 144 -7 144 67 0 72 -94 109 -145 57z"/>
 <path d="M5323 7095 c-38 -16 -63 -56 -63 -100 0 -84 111 -128 177 -71 24 21 28 32 28 75 0 38 -5 56 -21 71 -29 29 -84 40 -121 25z"/>
 <path d="M4587 7066 c-10 -8 -21 -30 -24 -50 -12 -73 75 -116 125 -63 28 29 28 67 1 101 -23 29 -71 35 -102 12z"/>
 <path d="M5605 7038 c-40 -24 -54 -52 -55 -105 0 -44 4 -56 26 -77 30 -27 71 -38 112 -30 33 7 52 21 74 55 22 34 9 102 -25 136 -29 29 -100 41 -132 21z"/>
 <path d="M5905 6981 c-43 -19 -68 -59 -72 -113 -5 -63 9 -94 56 -125 91 -62 211 5 211 118 0 37 -6 53 -33 84 -30 34 -39 38 -88 41 -29 2 -63 0 -74 -5z"/>
 <path d="M4427 6952 c-26 -29 -22 -78 8 -98 59 -39 128 23 94 84 -19 35 -76 43 -102 14z"/>
 <path d="M6188 6855 c-32 -18 -42 -45 -34 -91 8 -37 30 -54 73 -54 34 0 43 6 67 43 15 24 16 33 6 58 -7 16 -26 36 -43 44 -36 18 -35 18 -69 0z"/>
 <path d="M4333 6776 c-25 -21 -26 -26 -15 -50 15 -34 55 -50 82 -33 40 25 37 76 -6 95 -32 15 -28 16 -61 -12z"/>
 <path d="M5055 6791 c-44 -19 -65 -50 -65 -95 0 -57 30 -86 92 -88 71 -3 105 39 93 113 -9 54 -72 90 -120 70z"/>
 <path d="M6348 6767 c-53 -44 -25 -117 45 -117 62 0 83 96 27 125 -37 19 -39 19 -72 -8z"/>
 <path d="M4791 6664 c-39 -49 -20 -118 36 -133 66 -18 122 29 109 91 -10 49 -33 68 -82 68 -34 0 -47 -5 -63 -26z"/>
 <path d="M5855 6662 c-48 -6 -95 -62 -95 -112 0 -58 74 -121 134 -114 96 10 138 128 69 194 -30 30 -61 39 -108 32z"/>
 <path d="M6466 6644 c-9 -8 -16 -29 -16 -45 0 -55 80 -66 114 -14 15 23 15 26 -6 50 -25 29 -68 33 -92 9z"/>
 <path d="M5369 6612 c-26 -23 -31 -35 -31 -76 -1 -43 3 -53 31 -78 61 -54 152 -26 170 54 23 101 -93 169 -170 100z"/>
 <path d="M4650 6563 c-23 -8 -50 -46 -50 -71 0 -58 88 -94 130 -52 36 36 19 120 -25 120 -7 0 -19 2 -27 4 -7 3 -20 2 -28 -1z"/>
 <path d="M5173 6454 c-39 -17 -53 -41 -53 -89 0 -26 7 -43 27 -61 39 -36 71 -41 113 -17 68 40 64 139 -8 168 -40 17 -38 17 -79 -1z"/>
 <path d="M4543 6399 c-24 -9 -43 -38 -43 -67 0 -24 40 -62 66 -62 22 0 60 36 65 60 9 46 -42 86 -88 69z"/>
 <path d="M5762 6355 c-87 -38 -71 -182 22 -199 72 -14 126 31 126 104 0 53 -23 87 -69 100 -44 12 -39 12 -79 -5z"/>
 <path d="M4987 6268 c-17 -15 -30 -37 -34 -60 -5 -32 -1 -41 25 -68 36 -36 71 -39 112 -8 25 18 30 29 30 63 0 75 -78 118 -133 73z"/>
 <path d="M5414 6210 c-57 -23 -73 -110 -29 -155 35 -34 102 -35 133 -2 31 33 34 109 7 136 -24 23 -81 34 -111 21z"/>
 <path d="M4497 6182 c-33 -36 -13 -92 32 -92 51 0 80 60 45 94 -21 21 -57 20 -77 -2z"/>
 <path d="M4879 6087 c-64 -49 -39 -137 40 -137 41 0 69 22 72 56 5 47 -2 64 -31 79 -35 18 -59 19 -81 2z"/>
 <path d="M5689 6051 c-34 -35 -39 -92 -11 -129 21 -27 83 -39 123 -24 37 15 62 72 48 109 -29 78 -105 99 -160 44z"/>
 <path d="M5309 5973 c-38 -10 -51 -92 -20 -132 15 -19 28 -24 64 -24 55 0 86 29 87 81 0 61 -58 95 -131 75z"/>
 <path d="M4827 5883 c-26 -29 -22 -77 8 -97 33 -22 57 -20 84 5 19 18 22 29 18 57 -8 43 -7 43 -54 49 -29 4 -42 1 -56 -14z"/>
 <path d="M5714 5823 c-12 -2 -32 -15 -45 -29 -50 -53 -11 -144 62 -144 37 0 89 48 89 82 0 55 -53 100 -106 91z"/>
 <path d="M5251 5734 c-25 -32 -26 -52 -5 -82 25 -36 50 -45 90 -32 40 14 58 48 49 92 -12 54 -98 68 -134 22z"/>
 <path d="M4884 5666 c-13 -33 0 -51 39 -54 36 -3 37 -3 37 32 0 34 -2 36 -35 36 -22 0 -38 -6 -41 -14z"/>
 <path d="M5697 5582 c-10 -11 -17 -35 -17 -59 0 -70 69 -96 122 -46 32 30 35 51 13 93 -14 26 -21 30 -59 30 -29 0 -48 -6 -59 -18z"/>
 <path d="M5297 5553 c-25 -29 -26 -73 -1 -97 36 -37 114 -3 114 49 0 51 -80 84 -113 48z"/>
 <path d="M5783 5423 c-32 -22 -32 -85 -1 -107 72 -51 151 49 82 103 -31 25 -51 26 -81 4z"/>
 <path d="M5422 5384 c-43 -30 -21 -94 32 -94 53 0 77 44 45 84 -23 30 -45 33 -77 10z"/>
 <path d="M5917 5302 c-35 -38 -11 -92 41 -92 72 0 77 101 6 108 -20 2 -36 -3 -47 -16z"/>
 </g>
<g id="layer104" fill="#e3621b" stroke="none">
 <path d="M5219 8328 c-24 -19 -28 -40 -12 -70 14 -29 52 -38 83 -19 13 9 20 74 9 86 -14 13 -65 15 -80 3z"/>
 <path d="M5407 8308 c-28 -22 -32 -73 -8 -97 43 -43 114 -14 114 46 0 49 -66 80 -106 51z"/>
 <path d="M5547 8195 c-53 -50 -20 -125 55 -125 40 0 63 21 71 64 4 23 -1 36 -23 58 -35 35 -67 36 -103 3z"/>
 <path d="M5680 8043 c-48 -18 -65 -93 -31 -134 28 -35 104 -34 131 1 24 31 25 78 2 108 -18 23 -73 37 -102 25z"/>
 <path d="M4894 7985 c-11 -17 -14 -35 -10 -60 6 -29 12 -35 41 -41 50 -9 85 16 85 60 0 41 -26 66 -68 66 -23 0 -36 -7 -48 -25z"/>
 <path d="M5093 7968 c-12 -6 -27 -24 -34 -40 -16 -39 9 -97 43 -100 68 -4 98 18 98 71 0 41 -6 51 -37 69 -27 14 -40 14 -70 0z"/>
 <path d="M4733 7933 c-7 -2 -13 -20 -13 -39 0 -32 2 -34 35 -34 33 0 35 2 35 34 0 39 -21 54 -57 39z"/>
 <path d="M5269 7859 c-50 -18 -62 -97 -22 -141 11 -12 31 -18 59 -18 34 0 47 5 63 26 37 48 22 115 -30 133 -37 13 -35 13 -70 0z"/>
 <path d="M5737 7802 c-34 -35 -36 -95 -6 -132 29 -35 108 -36 141 -2 35 35 32 106 -5 138 -40 34 -95 33 -130 -4z"/>
 <path d="M5413 7676 c-23 -20 -28 -32 -28 -70 0 -56 25 -85 82 -93 32 -4 44 -1 71 22 27 22 32 34 32 70 0 36 -5 48 -31 69 -40 34 -88 34 -126 2z"/>
 <path d="M4758 7572 c-52 -31 -46 -112 8 -132 83 -32 141 67 73 124 -36 30 -45 31 -81 8z"/>
 <path d="M4973 7544 c-58 -24 -71 -91 -28 -138 51 -55 145 -17 145 58 -1 61 -62 103 -117 80z"/>
 <path d="M4577 7533 c-37 -19 -45 -58 -20 -91 24 -33 56 -39 89 -18 18 13 24 25 24 55 0 56 -43 81 -93 54z"/>
 <path d="M5620 7482 c-14 -2 -36 -11 -50 -22 -22 -16 -25 -27 -25 -80 0 -53 3 -64 25 -80 32 -25 107 -26 136 -2 49 39 56 91 21 143 -23 34 -57 47 -107 41z"/>
 <path d="M5165 7436 c-35 -35 -42 -72 -19 -114 34 -64 126 -69 164 -7 28 45 25 68 -11 110 -26 29 -38 35 -70 35 -29 0 -47 -7 -64 -24z"/>
 <path d="M4407 7402 c-22 -24 -21 -55 1 -75 38 -35 102 -9 102 40 0 47 -71 71 -103 35z"/>
 <path d="M5024 7106 c-37 -37 -42 -62 -19 -106 19 -36 43 -50 90 -50 82 0 116 100 56 161 -41 41 -83 39 -127 -5z"/>
 <path d="M4785 7105 c-36 -35 -35 -96 1 -124 59 -47 144 -7 144 67 0 72 -94 109 -145 57z"/>
 <path d="M5323 7095 c-38 -16 -63 -56 -63 -100 0 -84 111 -128 177 -71 24 21 28 32 28 75 0 38 -5 56 -21 71 -29 29 -84 40 -121 25z"/>
 <path d="M4587 7066 c-10 -8 -21 -30 -24 -50 -12 -73 75 -116 125 -63 28 29 28 67 1 101 -23 29 -71 35 -102 12z"/>
 <path d="M5605 7038 c-40 -24 -54 -52 -55 -105 0 -44 4 -56 26 -77 30 -27 71 -38 112 -30 55 11 82 49 82 113 0 59 -40 101 -100 107 -25 3 -54 -1 -65 -8z"/>
 <path d="M4427 6952 c-26 -29 -22 -78 8 -98 59 -39 128 23 94 84 -19 35 -76 43 -102 14z"/>
 <path d="M4333 6776 c-25 -21 -26 -26 -15 -50 15 -34 55 -50 82 -33 40 25 37 76 -6 95 -32 15 -28 16 -61 -12z"/>
 <path d="M5055 6791 c-44 -19 -65 -50 -65 -95 0 -57 30 -86 92 -88 71 -3 105 39 93 113 -9 54 -72 90 -120 70z"/>
 <path d="M4791 6664 c-39 -49 -20 -118 36 -133 66 -18 122 29 109 91 -10 49 -33 68 -82 68 -34 0 -47 -5 -63 -26z"/>
 <path d="M5369 6612 c-26 -23 -31 -35 -31 -76 -1 -43 3 -53 31 -78 61 -54 152 -26 170 54 23 101 -93 169 -170 100z"/>
 <path d="M4650 6563 c-23 -8 -50 -46 -50 -71 0 -58 88 -94 130 -52 36 36 19 120 -25 120 -7 0 -19 2 -27 4 -7 3 -20 2 -28 -1z"/>
 <path d="M5173 6454 c-39 -17 -53 -41 -53 -89 0 -26 7 -43 27 -61 39 -36 71 -41 113 -17 68 40 64 139 -8 168 -40 17 -38 17 -79 -1z"/>
 <path d="M4543 6399 c-24 -9 -43 -38 -43 -67 0 -24 40 -62 66 -62 22 0 60 36 65 60 9 46 -42 86 -88 69z"/>
 <path d="M4987 6268 c-17 -15 -30 -37 -34 -60 -5 -32 -1 -41 25 -68 36 -36 71 -39 112 -8 25 18 30 29 30 63 0 75 -78 118 -133 73z"/>
 <path d="M5414 6210 c-57 -23 -73 -110 -29 -155 35 -34 102 -35 133 -2 31 33 34 109 7 136 -24 23 -81 34 -111 21z"/>
 <path d="M4497 6182 c-33 -36 -13 -92 32 -92 51 0 80 60 45 94 -21 21 -57 20 -77 -2z"/>
 <path d="M4879 6087 c-64 -49 -39 -137 40 -137 41 0 69 22 72 56 5 47 -2 64 -31 79 -35 18 -59 19 -81 2z"/>
 <path d="M5309 5973 c-38 -10 -51 -92 -20 -132 15 -19 28 -24 64 -24 55 0 86 29 87 81 0 61 -58 95 -131 75z"/>
 <path d="M4827 5883 c-26 -29 -22 -77 8 -97 33 -22 57 -20 84 5 19 18 22 29 18 57 -8 43 -7 43 -54 49 -29 4 -42 1 -56 -14z"/>
 <path d="M5251 5734 c-25 -32 -26 -52 -5 -82 25 -36 50 -45 90 -32 40 14 58 48 49 92 -12 54 -98 68 -134 22z"/>
 <path d="M4884 5666 c-13 -33 0 -51 39 -54 36 -3 37 -3 37 32 0 34 -2 36 -35 36 -22 0 -38 -6 -41 -14z"/>
 <path d="M5297 5553 c-25 -29 -26 -73 -1 -97 36 -37 114 -3 114 49 0 51 -80 84 -113 48z"/>
 <path d="M5422 5384 c-43 -30 -21 -94 32 -94 53 0 77 44 45 84 -23 30 -45 33 -77 10z"/>
 </g>

</svg>